<svg xmlns="http://www.w3.org/2000/svg" viewBox="0 0 100 100">
  <rect width="100" height="100" rx="20" fill="#0F0F15"/>
  <path d="M18 8 C17 8 15 9 15 11 L14 78 C14 80 16 82 18 82 L68 83 C70 83 72 81 72 79 L73 28 L52 7 Z" fill="#1A1D3A" stroke="#5B6EF5" stroke-width="2.5" stroke-linecap="round" stroke-linejoin="round"/>
  <path d="M52 7 L51 27 L73 28" fill="#111130" stroke="#5B6EF5" stroke-width="2" stroke-linecap="round" stroke-linejoin="round"/>
  <path d="M24 38 C26 36 29 35 32 37 C35 39 34 43 37 42 C40 41 39 37 43 36 C46 35 48 37 49 39" stroke="#818CF8" stroke-width="2.5" stroke-linecap="round" fill="none"/>
  <path d="M24 50 C27 48 30 49 33 51 C36 53 38 50 41 49" stroke="#818CF8" stroke-width="2" stroke-linecap="round" fill="none" opacity="0.7"/>
  <path d="M24 61 L38 60" stroke="#818CF8" stroke-width="1.8" stroke-linecap="round" fill="none" opacity="0.4"/>
  <circle cx="78" cy="72" r="14" fill="#5B6EF5"/>
  <path d="M78 64 L79.5 69.5 L85 71 L79.5 72.5 L78 78 L76.5 72.5 L71 71 L76.5 69.5 Z" fill="white"/>
</svg>
